<svg width="2162" height="2045" viewBox="0 0 2162 2045" fill="none" xmlns="http://www.w3.org/2000/svg">
<g filter="url(#filter0_d_1_109)">
<path d="M685.571 777.489V872.154H375.926V499.776H678.624V594.44H499.346V638.014H656.833V728.397H499.346V777.299H685.571V777.489Z" fill="#9D9D9C"/>
<path d="M913.76 872.154L849.338 772.637L786.533 872.154H643.416L778.064 684.348L648.269 499.776H789.293L852.573 593.394L914.331 499.776H1049.46L920.135 679.591L1057.35 872.154H913.665H913.76Z" fill="#9D9D9C"/>
<path d="M1368.71 640.203C1368.71 726.399 1302.77 780.629 1199.04 780.629H1145.28V872.154H1019.77V499.776H1199.04C1302.77 499.776 1368.71 554.006 1368.71 640.203ZM1242.06 640.203C1242.06 613.088 1225.59 596.629 1190.96 596.629H1145.18V683.872H1190.96C1225.5 683.872 1242.06 667.413 1242.06 640.298V640.203Z" fill="#9D9D9C"/>
<path d="M1346.92 685.965C1346.92 573.224 1435.8 491.309 1557.03 491.309C1678.26 491.309 1767.14 573.224 1767.14 685.965C1767.14 798.706 1678.26 880.621 1557.03 880.621C1435.8 880.621 1346.92 798.706 1346.92 685.965ZM1640.58 685.965C1640.58 628.025 1603.37 592.918 1557.03 592.918C1510.69 592.918 1473.48 628.025 1473.48 685.965C1473.48 743.905 1510.69 779.012 1557.03 779.012C1603.37 779.012 1640.58 743.905 1640.58 685.965Z" fill="#9D9D9C"/>
</g>
<g filter="url(#filter1_d_1_109)">
<path d="M84.0764 1716.43V1654.3L53.15 1706.05H47.5357L16.7044 1654.68V1716.43H5V1631.18H14.9916L50.5807 1691.12L85.6941 1631.18H95.6857V1716.43H84.0764Z" fill="black"/>
<path d="M113.67 1684.08C113.67 1664.86 127.944 1651.16 147.261 1651.16C166.578 1651.16 180.757 1664.76 180.757 1684.08C180.757 1703.39 166.578 1717.09 147.261 1717.09C127.944 1717.09 113.67 1703.3 113.67 1684.08ZM168.957 1684.08C168.957 1670.28 159.727 1661.43 147.261 1661.43C134.796 1661.43 125.47 1670.28 125.47 1684.08C125.47 1697.87 134.891 1706.82 147.261 1706.82C159.632 1706.82 168.957 1697.78 168.957 1684.08Z" fill="black"/>
<path d="M188.845 1709.58L193.699 1700.35C199.218 1704.25 207.972 1707.01 216.346 1707.01C227.194 1707.01 231.667 1703.68 231.667 1698.25C231.667 1683.79 190.844 1696.26 190.844 1670.57C190.844 1658.96 201.216 1651.16 217.774 1651.16C226.147 1651.16 235.663 1653.35 241.278 1657.06L236.329 1666.29C230.525 1662.48 224.054 1661.15 217.678 1661.15C207.401 1661.15 202.453 1664.95 202.453 1670C202.453 1685.22 243.371 1672.76 243.371 1697.87C243.371 1709.58 232.618 1717 215.49 1717C204.737 1717 194.174 1713.67 188.845 1709.48V1709.58Z" fill="black"/>
<path d="M294.28 1712.62C290.76 1715.66 285.431 1717.09 280.197 1717.09C267.16 1717.09 259.738 1709.86 259.738 1696.83V1661.43H248.795V1651.83H259.738V1637.65H271.443V1651.83H289.998V1661.43H271.443V1696.35C271.443 1703.3 275.059 1707.2 281.529 1707.2C284.955 1707.2 288.19 1706.06 290.664 1704.15L294.28 1712.52V1712.62Z" fill="black"/>
<path d="M343.192 1651.25V1662.58C342.24 1662.48 341.384 1662.48 340.527 1662.48C327.966 1662.48 320.163 1670.19 320.163 1684.27V1716.43H308.459V1651.83H319.688V1662.67C323.875 1655.16 331.868 1651.25 343.192 1651.25Z" fill="black"/>
<path d="M408.566 1677.42V1716.43H397.432V1707.86C393.531 1713.76 386.299 1717.09 376.212 1717.09C361.557 1717.09 352.327 1709.29 352.327 1698.06C352.327 1687.69 358.988 1679.23 378.305 1679.23H396.861V1676.94C396.861 1667.05 391.152 1661.34 379.542 1661.34C371.835 1661.34 364.032 1664 359.083 1668.28L354.23 1659.53C360.891 1654.2 370.597 1651.25 380.875 1651.25C398.574 1651.25 408.566 1659.82 408.566 1677.42ZM396.861 1696.64V1687.6H378.781C367.172 1687.6 363.936 1692.07 363.936 1697.59C363.936 1704.06 369.265 1708.05 378.21 1708.05C387.155 1708.05 393.911 1704.06 396.861 1696.64Z" fill="black"/>
<path d="M538.075 1631.08V1716.33H528.084L476.889 1652.78V1716.33H464.708V1631.08H474.7L525.895 1694.64V1631.08H538.075Z" fill="black"/>
<path d="M613.155 1677.42V1716.43H602.022V1707.86C598.12 1713.76 590.888 1717.09 580.802 1717.09C566.147 1717.09 556.917 1709.29 556.917 1698.06C556.917 1687.69 563.578 1679.23 582.895 1679.23H601.451V1676.94C601.451 1667.05 595.741 1661.34 584.132 1661.34C576.424 1661.34 568.621 1664 563.673 1668.28L558.82 1659.53C565.481 1654.2 575.187 1651.25 585.464 1651.25C603.164 1651.25 613.155 1659.82 613.155 1677.42ZM601.451 1696.64V1687.6H583.371C571.762 1687.6 568.526 1692.07 568.526 1697.59C568.526 1704.06 573.855 1708.05 582.8 1708.05C591.745 1708.05 598.501 1704.06 601.451 1696.64Z" fill="black"/>
<path d="M629.237 1684.08C629.237 1664.86 643.511 1651.16 663.303 1651.16C674.913 1651.16 684.524 1655.92 689.662 1664.95L680.812 1670.66C676.626 1664.29 670.345 1661.43 663.303 1661.43C650.647 1661.43 641.132 1670.28 641.132 1684.08C641.132 1697.87 650.647 1706.82 663.303 1706.82C670.345 1706.82 676.721 1703.87 680.812 1697.59L689.662 1703.2C684.524 1712.24 674.913 1717.09 663.303 1717.09C643.415 1717.09 629.237 1703.3 629.237 1684.08Z" fill="black"/>
<path d="M702.604 1631.85C702.604 1627.56 706.03 1624.14 710.502 1624.14C714.975 1624.14 718.4 1627.47 718.4 1631.56C718.4 1635.94 715.07 1639.36 710.502 1639.36C705.935 1639.36 702.604 1636.03 702.604 1631.85ZM704.697 1651.83H716.402V1716.43H704.697V1651.83Z" fill="black"/>
<path d="M732.769 1684.08C732.769 1664.86 747.043 1651.16 766.36 1651.16C785.677 1651.16 799.855 1664.76 799.855 1684.08C799.855 1703.39 785.677 1717.09 766.36 1717.09C747.043 1717.09 732.769 1703.3 732.769 1684.08ZM788.056 1684.08C788.056 1670.28 778.826 1661.43 766.36 1661.43C753.894 1661.43 744.569 1670.28 744.569 1684.08C744.569 1697.87 753.989 1706.82 766.36 1706.82C778.73 1706.82 788.056 1697.78 788.056 1684.08Z" fill="black"/>
<path d="M877.314 1679.23V1716.33H865.61V1680.56C865.61 1667.9 859.234 1661.72 848.196 1661.72C835.73 1661.72 827.737 1669.14 827.737 1683.13V1716.43H816.032V1651.83H827.261V1661.53C832.019 1654.96 840.298 1651.16 850.575 1651.16C866.276 1651.16 877.409 1660.2 877.409 1679.23H877.314Z" fill="black"/>
<path d="M950.205 1677.42V1716.43H939.072V1707.86C935.17 1713.76 927.938 1717.09 917.851 1717.09C903.197 1717.09 893.967 1709.29 893.967 1698.06C893.967 1687.69 900.628 1679.23 919.945 1679.23H938.501V1676.94C938.501 1667.05 932.791 1661.34 921.182 1661.34C913.474 1661.34 905.671 1664 900.723 1668.28L895.87 1659.53C902.531 1654.2 912.237 1651.25 922.514 1651.25C940.214 1651.25 950.205 1659.82 950.205 1677.42ZM938.501 1696.64V1687.6H920.421C908.811 1687.6 905.576 1692.07 905.576 1697.59C905.576 1704.06 910.905 1708.05 919.85 1708.05C928.795 1708.05 935.551 1704.06 938.501 1696.64Z" fill="black"/>
<path d="M971.901 1626.04H983.606V1716.43H971.901V1626.04Z" fill="black"/>
<path d="M1099.51 1626.04V1716.43H1088.28V1706.15C1083.05 1713.48 1074.77 1717.09 1065.25 1717.09C1046.41 1717.09 1032.61 1703.77 1032.61 1684.08C1032.61 1664.38 1046.41 1651.16 1065.25 1651.16C1074.39 1651.16 1082.48 1654.58 1087.8 1661.53V1625.95H1099.51V1626.04ZM1087.9 1684.17C1087.9 1670.38 1078.48 1661.53 1066.2 1661.53C1053.93 1661.53 1044.41 1670.38 1044.41 1684.17C1044.41 1697.97 1053.83 1706.91 1066.2 1706.91C1078.57 1706.91 1087.9 1697.87 1087.9 1684.17Z" fill="black"/>
<path d="M1179.82 1687.98H1127.48C1128.91 1699.3 1138.05 1706.82 1150.89 1706.82C1158.41 1706.82 1164.79 1704.25 1169.54 1699.01L1176.02 1706.53C1170.21 1713.38 1161.27 1717 1150.51 1717C1129.67 1717 1115.78 1703.2 1115.78 1683.98C1115.78 1664.76 1129.58 1651.06 1148.23 1651.06C1166.88 1651.06 1180.11 1664.48 1180.11 1684.36C1180.11 1685.31 1180.01 1686.84 1179.82 1687.88V1687.98ZM1127.48 1679.61H1168.88C1167.64 1668.76 1159.46 1661.05 1148.13 1661.05C1136.81 1661.05 1128.63 1668.57 1127.39 1679.61H1127.48Z" fill="black"/>
<path d="M1292.58 1705.77V1716.33H1230.73V1631.08H1290.97V1641.65H1243.01V1667.81H1285.73V1678.18H1243.01V1705.67H1292.68L1292.58 1705.77Z" fill="black"/>
<path d="M1350.35 1716.43L1331.69 1691.69L1312.85 1716.43H1299.82L1325.22 1683.41L1300.96 1651.83H1313.99L1331.79 1675.13L1349.49 1651.83H1362.24L1337.88 1683.41L1363.57 1716.43H1350.25H1350.35Z" fill="black"/>
<path d="M1443.31 1684.08C1443.31 1703.96 1429.52 1717.09 1410.68 1717.09C1401.54 1717.09 1393.45 1713.57 1388.12 1706.63V1740.02H1376.42V1651.83H1387.65V1662.1C1392.88 1654.96 1401.16 1651.25 1410.68 1651.25C1429.52 1651.25 1443.31 1664.38 1443.31 1684.17V1684.08ZM1431.52 1684.08C1431.52 1670.47 1422.09 1661.43 1409.72 1661.43C1397.35 1661.43 1388.03 1670.47 1388.03 1684.08C1388.03 1697.68 1397.45 1706.82 1409.72 1706.82C1422 1706.82 1431.52 1697.78 1431.52 1684.08Z" fill="black"/>
<path d="M1517.63 1687.98H1465.3C1466.72 1699.3 1475.86 1706.82 1488.7 1706.82C1496.22 1706.82 1502.6 1704.25 1507.36 1699.01L1513.83 1706.53C1507.93 1713.38 1499.08 1717 1488.32 1717C1467.48 1717 1453.59 1703.2 1453.59 1683.98C1453.59 1664.76 1467.39 1651.06 1486.04 1651.06C1504.69 1651.06 1517.92 1664.48 1517.92 1684.36C1517.92 1685.31 1517.82 1686.84 1517.63 1687.88V1687.98ZM1465.3 1679.61H1506.69C1505.45 1668.76 1497.27 1661.05 1485.95 1661.05C1474.62 1661.05 1466.44 1668.57 1465.2 1679.61H1465.3Z" fill="black"/>
<path d="M1568.83 1651.25V1662.58C1567.88 1662.48 1567.02 1662.48 1566.16 1662.48C1553.6 1662.48 1545.8 1670.19 1545.8 1684.27V1716.43H1534.1V1651.83H1545.32V1662.67C1549.51 1655.16 1557.5 1651.25 1568.83 1651.25Z" fill="black"/>
<path d="M1581.1 1631.85C1581.1 1627.56 1584.53 1624.14 1589 1624.14C1593.47 1624.14 1596.9 1627.47 1596.9 1631.56C1596.9 1635.94 1593.57 1639.36 1589 1639.36C1584.43 1639.36 1581.1 1636.03 1581.1 1631.85ZM1583.2 1651.83H1594.9V1716.43H1583.2V1651.83Z" fill="black"/>
<path d="M1675.21 1687.98H1622.88C1624.3 1699.3 1633.44 1706.82 1646.29 1706.82C1653.8 1706.82 1660.18 1704.25 1664.94 1699.01L1671.41 1706.53C1665.51 1713.38 1656.66 1717 1645.91 1717C1625.07 1717 1611.17 1703.2 1611.17 1683.98C1611.17 1664.76 1624.97 1651.06 1643.62 1651.06C1662.27 1651.06 1675.5 1664.48 1675.5 1684.36C1675.5 1685.31 1675.4 1686.84 1675.21 1687.88V1687.98ZM1632.2 1642.41H1621.64L1637.82 1626.52H1649.05L1665.22 1642.41H1654.66L1643.43 1632.99L1632.2 1642.41ZM1622.78 1679.51H1664.18C1662.94 1668.66 1654.76 1660.96 1643.43 1660.96C1632.11 1660.96 1623.92 1668.47 1622.69 1679.51H1622.78Z" fill="black"/>
<path d="M1752.96 1679.23V1716.33H1741.25V1680.56C1741.25 1667.9 1734.88 1661.72 1723.84 1661.72C1711.38 1661.72 1703.38 1669.14 1703.38 1683.13V1716.43H1691.68V1651.83H1702.91V1661.53C1707.66 1654.96 1715.94 1651.16 1726.22 1651.16C1741.92 1651.16 1753.05 1660.2 1753.05 1679.23H1752.96Z" fill="black"/>
<path d="M1769.04 1684.08C1769.04 1664.86 1783.31 1651.16 1803.11 1651.16C1814.72 1651.16 1824.33 1655.92 1829.47 1664.95L1820.62 1670.66C1816.43 1664.29 1810.15 1661.43 1803.11 1661.43C1790.45 1661.43 1780.94 1670.28 1780.94 1684.08C1780.94 1697.87 1790.45 1706.82 1803.11 1706.82C1810.15 1706.82 1816.52 1703.87 1820.62 1697.59L1829.47 1703.2C1824.33 1712.24 1814.72 1717.09 1803.11 1717.09C1783.22 1717.09 1769.04 1703.3 1769.04 1684.08Z" fill="black"/>
<path d="M1842.5 1631.85C1842.5 1627.56 1845.93 1624.14 1850.4 1624.14C1854.87 1624.14 1858.3 1627.47 1858.3 1631.56C1858.3 1635.94 1854.97 1639.36 1850.4 1639.36C1845.83 1639.36 1842.5 1636.03 1842.5 1631.85ZM1844.6 1651.83H1856.3V1716.43H1844.6V1651.83Z" fill="black"/>
<path d="M1929.76 1677.42V1716.43H1918.63V1707.86C1914.73 1713.76 1907.5 1717.09 1897.41 1717.09C1882.75 1717.09 1873.52 1709.29 1873.52 1698.06C1873.52 1687.69 1880.19 1679.23 1899.5 1679.23H1918.06V1676.94C1918.06 1667.05 1912.35 1661.34 1900.74 1661.34C1893.03 1661.34 1885.23 1664 1880.28 1668.28L1875.43 1659.53C1882.09 1654.2 1891.79 1651.25 1902.07 1651.25C1919.77 1651.25 1929.76 1659.82 1929.76 1677.42ZM1918.06 1696.64V1687.6H1900.07C1888.46 1687.6 1885.23 1692.07 1885.23 1697.59C1885.23 1704.06 1890.56 1708.05 1899.5 1708.05C1908.45 1708.05 1915.2 1704.06 1918.15 1696.64H1918.06Z" fill="black"/>
<path d="M1943.27 1709.58L1948.13 1700.35C1953.65 1704.25 1962.4 1707.01 1970.78 1707.01C1981.62 1707.01 1986.1 1703.68 1986.1 1698.25C1986.1 1683.79 1945.27 1696.26 1945.27 1670.57C1945.27 1658.96 1955.65 1651.16 1972.2 1651.16C1980.58 1651.16 1990.09 1653.35 1995.71 1657.06L1990.66 1666.29C1984.86 1662.48 1978.39 1661.15 1972.01 1661.15C1961.74 1661.15 1956.79 1664.95 1956.79 1670C1956.79 1685.22 1997.71 1672.76 1997.71 1697.87C1997.71 1709.58 1986.95 1717 1969.82 1717C1959.07 1717 1948.51 1713.67 1943.18 1709.48L1943.27 1709.58Z" fill="black"/>
<path d="M78.3669 1839.54C78.3669 1854.19 67.2334 1862.56 45.7277 1862.56H5V1777.31H43.2535C62.8561 1777.31 73.7993 1785.59 73.7993 1799.39C73.7993 1808.62 69.0414 1815.09 62.3803 1818.42C71.9913 1821.08 78.3669 1828.31 78.3669 1839.63V1839.54ZM17.1802 1787.21V1814.51H42.1117C54.5774 1814.51 61.6191 1809.85 61.6191 1800.91C61.6191 1791.97 54.5774 1787.3 42.1117 1787.3H17.1802V1787.21ZM65.9963 1838.58C65.9963 1828.69 58.6692 1824.31 45.1567 1824.31H17.1802V1852.67H45.1567C58.6692 1852.67 65.9963 1848.38 65.9963 1838.49V1838.58Z" fill="black"/>
<path d="M153.637 1834.21H101.3C102.727 1845.53 111.862 1853.05 124.709 1853.05C132.226 1853.05 138.602 1850.48 143.36 1845.24L149.831 1852.76C144.026 1859.61 135.081 1863.23 124.328 1863.23C103.489 1863.23 89.5955 1849.43 89.5955 1830.21C89.5955 1810.99 103.393 1797.29 122.044 1797.29C140.695 1797.29 153.922 1810.71 153.922 1830.59C153.922 1831.54 153.827 1833.07 153.637 1834.11V1834.21ZM101.3 1825.84H142.694C141.457 1814.99 133.273 1807.28 121.949 1807.28C110.625 1807.28 102.442 1814.8 101.205 1825.84H101.3Z" fill="black"/>
<path d="M277.247 1825.36V1862.46H265.543V1826.69C265.543 1814.04 259.453 1807.85 248.89 1807.85C237.186 1807.85 229.478 1815.28 229.478 1829.26V1862.56H217.774V1826.79C217.774 1814.13 211.683 1807.95 201.121 1807.95C189.416 1807.95 181.709 1815.37 181.709 1829.36V1862.66H170.004V1798.06H181.233V1807.66C185.896 1801.1 193.794 1797.39 203.5 1797.39C213.206 1797.39 221.675 1801.29 225.957 1809.28C230.81 1801.96 239.85 1797.39 250.793 1797.39C266.494 1797.39 277.247 1806.43 277.247 1825.46V1825.36Z" fill="black"/>
<path d="M294.661 1824.03H327.396V1834.11H294.661V1824.03Z" fill="black"/>
<path d="M337.292 1852.76L341.764 1843.25C348.14 1848.96 358.988 1853.14 369.931 1853.14C384.681 1853.14 390.961 1847.43 390.961 1840.01C390.961 1819.18 339.29 1832.31 339.29 1800.62C339.29 1787.49 349.567 1776.27 371.929 1776.27C381.921 1776.27 392.293 1778.93 399.335 1783.78L395.338 1793.49C387.916 1788.73 379.542 1786.54 371.929 1786.54C357.465 1786.54 351.185 1792.63 351.185 1800.05C351.185 1820.89 402.856 1807.85 402.856 1839.16C402.856 1852.19 392.388 1863.42 369.836 1863.42C356.799 1863.42 344.048 1859.04 337.197 1852.67L337.292 1852.76Z" fill="black"/>
<path d="M479.268 1797.96V1862.56H468.134V1852.86C463.377 1859.52 455.383 1863.32 446.248 1863.32C429.595 1863.32 418.462 1854.19 418.462 1835.16V1798.06H430.166V1833.83C430.166 1846.48 436.542 1852.86 447.58 1852.86C459.76 1852.86 467.563 1845.34 467.563 1831.45V1798.06H479.268V1797.96Z" fill="black"/>
<path d="M495.54 1830.31C495.54 1811.09 509.814 1797.39 529.607 1797.39C541.216 1797.39 550.827 1802.15 555.965 1811.18L547.116 1816.89C542.929 1810.52 536.648 1807.66 529.607 1807.66C516.951 1807.66 507.435 1816.51 507.435 1830.31C507.435 1844.1 516.951 1853.05 529.607 1853.05C536.648 1853.05 543.024 1850.1 547.116 1843.82L555.965 1849.43C550.827 1858.47 541.216 1863.32 529.607 1863.32C509.719 1863.32 495.54 1849.53 495.54 1830.31Z" fill="black"/>
<path d="M628.19 1834.21H575.853C577.281 1845.53 586.416 1853.05 599.262 1853.05C606.78 1853.05 613.155 1850.48 617.913 1845.24L624.384 1852.76C618.579 1859.61 609.635 1863.23 598.882 1863.23C578.042 1863.23 564.149 1849.43 564.149 1830.21C564.149 1810.99 577.947 1797.29 596.598 1797.29C615.249 1797.29 628.476 1810.71 628.476 1830.59C628.476 1831.54 628.381 1833.07 628.19 1834.11V1834.21ZM575.853 1825.84H617.247C616.01 1814.99 607.827 1807.28 596.503 1807.28C585.179 1807.28 576.995 1814.8 575.758 1825.84H575.853Z" fill="black"/>
<path d="M705.554 1772.18V1862.56H694.325V1852.28C689.092 1859.61 680.813 1863.23 671.297 1863.23C652.456 1863.23 638.658 1849.91 638.658 1830.21C638.658 1810.52 652.456 1797.29 671.297 1797.29C680.432 1797.29 688.521 1800.72 693.849 1807.66V1772.08H705.554V1772.18ZM693.945 1830.31C693.945 1816.51 684.524 1807.66 672.249 1807.66C659.973 1807.66 650.457 1816.51 650.457 1830.31C650.457 1844.1 659.878 1853.05 672.249 1853.05C684.619 1853.05 693.945 1844.01 693.945 1830.31Z" fill="black"/>
<path d="M725.632 1777.98C725.632 1773.7 729.058 1770.27 733.53 1770.27C738.003 1770.27 741.429 1773.6 741.429 1777.7C741.429 1782.07 738.098 1785.5 733.53 1785.5C728.963 1785.5 725.632 1782.17 725.632 1777.98ZM727.726 1797.96H739.43V1862.56H727.726V1797.96Z" fill="black"/>
<path d="M822.598 1772.18V1862.56H811.37V1852.28C806.136 1859.61 797.857 1863.23 788.341 1863.23C769.5 1863.23 755.702 1849.91 755.702 1830.21C755.702 1810.52 769.5 1797.29 788.341 1797.29C797.477 1797.29 805.565 1800.72 810.894 1807.66V1772.08H822.598V1772.18ZM810.989 1830.31C810.989 1816.51 801.568 1807.66 789.293 1807.66C777.018 1807.66 767.502 1816.51 767.502 1830.31C767.502 1844.1 776.922 1853.05 789.293 1853.05C801.663 1853.05 810.989 1844.01 810.989 1830.31Z" fill="black"/>
<path d="M895.965 1823.55V1862.56H884.831V1854C880.93 1859.9 873.698 1863.23 863.611 1863.23C848.957 1863.23 839.727 1855.42 839.727 1844.2C839.727 1833.83 846.388 1825.36 865.705 1825.36H884.261V1823.08C884.261 1813.18 878.551 1807.47 866.942 1807.47C859.234 1807.47 851.431 1810.14 846.483 1814.42L841.63 1805.67C848.291 1800.34 857.997 1797.39 868.274 1797.39C885.973 1797.39 895.965 1805.95 895.965 1823.55ZM884.261 1842.77V1833.73H866.181C854.571 1833.73 851.336 1838.2 851.336 1843.72C851.336 1850.19 856.665 1854.19 865.61 1854.19C874.554 1854.19 881.311 1850.19 884.261 1842.77Z" fill="black"/>
<path d="M909.478 1855.71L914.331 1846.48C919.85 1850.38 928.604 1853.14 936.978 1853.14C947.826 1853.14 952.299 1849.81 952.299 1844.39C952.299 1829.93 911.476 1842.39 911.476 1816.7C911.476 1805.1 921.848 1797.29 938.406 1797.29C946.779 1797.29 956.295 1799.48 961.91 1803.19L956.961 1812.42C951.157 1808.62 944.686 1807.28 938.31 1807.28C928.033 1807.28 923.085 1811.09 923.085 1816.13C923.085 1831.35 964.003 1818.89 964.003 1844.01C964.003 1855.71 953.25 1863.13 936.122 1863.13C925.369 1863.13 914.806 1859.8 909.478 1855.61V1855.71Z" fill="black"/>
<path d="M1069.53 1834.21H1017.2C1018.62 1845.53 1027.76 1853.05 1040.61 1853.05C1048.12 1853.05 1054.5 1850.48 1059.26 1845.24L1065.73 1852.76C1059.92 1859.61 1050.98 1863.23 1040.22 1863.23C1019.39 1863.23 1005.49 1849.43 1005.49 1830.21C1005.49 1810.99 1019.29 1797.29 1037.94 1797.29C1056.59 1797.29 1069.82 1810.71 1069.82 1830.59C1069.82 1831.54 1069.72 1833.07 1069.53 1834.11V1834.21ZM1017.2 1825.84H1058.59C1057.35 1814.99 1049.17 1807.28 1037.85 1807.28C1026.52 1807.28 1018.34 1814.8 1017.1 1825.84H1017.2Z" fill="black"/>
<path d="M1193.24 1825.36V1862.46H1181.53V1826.69C1181.53 1814.04 1175.44 1807.85 1164.88 1807.85C1153.18 1807.85 1145.47 1815.28 1145.47 1829.26V1862.56H1133.77V1826.79C1133.77 1814.13 1127.68 1807.95 1117.11 1807.95C1105.41 1807.95 1097.7 1815.37 1097.7 1829.36V1862.66H1086V1798.06H1097.22V1807.66C1101.89 1801.1 1109.79 1797.39 1119.49 1797.39C1129.2 1797.39 1137.67 1801.29 1141.95 1809.28C1146.8 1801.96 1155.84 1797.39 1166.79 1797.39C1182.49 1797.39 1193.24 1806.43 1193.24 1825.46V1825.36Z" fill="black"/>
<path d="M1311.14 1851.9V1862.47H1249.29V1777.22H1309.52V1787.78H1261.56V1813.94H1304.29V1824.31H1261.56V1851.81H1311.24L1311.14 1851.9Z" fill="black"/>
<path d="M1396.02 1830.31C1396.02 1850.19 1382.22 1863.32 1363.38 1863.32C1354.25 1863.32 1346.16 1859.8 1340.83 1852.86V1886.25H1329.12V1798.06H1340.35V1808.33C1345.59 1801.19 1353.87 1797.48 1363.38 1797.48C1382.22 1797.48 1396.02 1810.61 1396.02 1830.4V1830.31ZM1384.22 1830.31C1384.22 1816.7 1374.8 1807.66 1362.43 1807.66C1350.06 1807.66 1340.73 1816.7 1340.73 1830.31C1340.73 1843.91 1350.15 1853.05 1362.43 1853.05C1374.71 1853.05 1384.22 1844.01 1384.22 1830.31Z" fill="black"/>
<path d="M1410.2 1777.98C1410.2 1773.7 1413.62 1770.27 1418.1 1770.27C1422.57 1770.27 1426 1773.6 1426 1777.7C1426 1782.07 1422.66 1785.5 1418.1 1785.5C1413.53 1785.5 1410.2 1782.17 1410.2 1777.98ZM1412.29 1797.96H1424V1862.56H1412.29V1797.96Z" fill="black"/>
<path d="M1507.17 1772.18V1862.56H1495.94V1852.28C1490.7 1859.61 1482.42 1863.23 1472.91 1863.23C1454.07 1863.23 1440.27 1849.91 1440.27 1830.21C1440.27 1810.52 1454.07 1797.29 1472.91 1797.29C1482.04 1797.29 1490.04 1800.72 1495.46 1807.66V1772.08H1507.17V1772.18ZM1495.56 1830.31C1495.56 1816.51 1486.14 1807.66 1473.86 1807.66C1461.58 1807.66 1452.07 1816.51 1452.07 1830.31C1452.07 1844.1 1461.49 1853.05 1473.86 1853.05C1486.23 1853.05 1495.56 1844.01 1495.56 1830.31Z" fill="black"/>
<path d="M1587.38 1834.21H1535.05C1536.47 1845.53 1545.61 1853.05 1558.46 1853.05C1565.97 1853.05 1572.35 1850.48 1577.11 1845.24L1583.58 1852.76C1577.68 1859.61 1568.83 1863.23 1558.08 1863.23C1537.24 1863.23 1523.34 1849.43 1523.34 1830.21C1523.34 1810.99 1537.14 1797.29 1555.79 1797.29C1574.44 1797.29 1587.67 1810.71 1587.67 1830.59C1587.67 1831.54 1587.57 1833.07 1587.38 1834.11V1834.21ZM1535.05 1825.84H1576.44C1575.2 1814.99 1567.02 1807.28 1555.7 1807.28C1544.37 1807.28 1536.19 1814.8 1534.95 1825.84H1535.05Z" fill="black"/>
<path d="M1711.09 1825.36V1862.46H1699.38V1826.69C1699.38 1814.04 1693.29 1807.85 1682.73 1807.85C1671.03 1807.85 1663.32 1815.28 1663.32 1829.26V1862.56H1651.62V1826.79C1651.62 1814.13 1645.53 1807.95 1634.96 1807.95C1623.26 1807.95 1615.55 1815.37 1615.55 1829.36V1862.66H1603.85V1798.06H1615.07V1807.66C1619.74 1801.1 1627.64 1797.39 1637.34 1797.39C1647.05 1797.39 1655.52 1801.29 1659.8 1809.28C1664.65 1801.96 1673.69 1797.39 1684.64 1797.39C1700.34 1797.39 1711.09 1806.43 1711.09 1825.46V1825.36Z" fill="black"/>
<path d="M1730.6 1777.98C1730.6 1773.7 1734.02 1770.27 1738.49 1770.27C1742.97 1770.27 1746.39 1773.6 1746.39 1777.7C1746.39 1782.07 1743.06 1785.5 1738.49 1785.5C1733.93 1785.5 1730.6 1782.17 1730.6 1777.98ZM1732.69 1797.96H1744.39V1862.56H1732.69V1797.96Z" fill="black"/>
<path d="M1760.67 1830.31C1760.67 1811.09 1774.94 1797.39 1794.26 1797.39C1813.57 1797.39 1827.75 1810.99 1827.75 1830.31C1827.75 1849.62 1813.57 1863.32 1794.26 1863.32C1774.94 1863.32 1760.67 1849.53 1760.67 1830.31ZM1815.95 1830.31C1815.95 1816.51 1806.72 1807.66 1794.26 1807.66C1781.79 1807.66 1772.47 1816.51 1772.47 1830.31C1772.47 1844.1 1781.89 1853.05 1794.26 1853.05C1806.63 1853.05 1815.95 1844.01 1815.95 1830.31Z" fill="black"/>
<path d="M1843.93 1772.18H1855.63V1862.56H1843.93V1772.18Z" fill="black"/>
<path d="M1872 1830.31C1872 1811.09 1886.28 1797.39 1905.59 1797.39C1924.91 1797.39 1939.09 1810.99 1939.09 1830.31C1939.09 1849.62 1924.91 1863.32 1905.59 1863.32C1886.28 1863.32 1872 1849.53 1872 1830.31ZM1927.29 1830.31C1927.29 1816.51 1918.06 1807.66 1905.59 1807.66C1893.13 1807.66 1883.8 1816.51 1883.8 1830.31C1883.8 1844.1 1893.22 1853.05 1905.59 1853.05C1917.96 1853.05 1927.29 1844.01 1927.29 1830.31Z" fill="black"/>
<path d="M2017.02 1797.96V1853.71C2017.02 1876.45 2005.41 1886.82 1983.53 1886.82C1971.73 1886.82 1959.74 1883.49 1952.7 1877.21L1958.31 1868.17C1964.3 1873.31 1973.63 1876.55 1983.15 1876.55C1998.37 1876.55 2005.32 1869.51 2005.32 1854.85V1849.72C1999.7 1856.38 1991.33 1859.71 1982 1859.71C1963.35 1859.71 1949.27 1847.05 1949.27 1828.4C1949.27 1809.76 1963.35 1797.2 1982 1797.2C1991.62 1797.2 2000.37 1800.72 2005.89 1807.76V1797.77H2017.02V1797.96ZM2005.6 1828.5C2005.6 1815.94 1996.37 1807.57 1983.43 1807.57C1970.49 1807.57 1961.16 1815.94 1961.16 1828.5C1961.16 1841.06 1970.4 1849.53 1983.43 1849.53C1996.47 1849.53 2005.6 1840.87 2005.6 1828.5Z" fill="black"/>
<path d="M2037.29 1777.98C2037.29 1773.7 2040.72 1770.27 2045.19 1770.27C2049.66 1770.27 2053.09 1773.6 2053.09 1777.7C2053.09 1782.07 2049.76 1785.5 2045.19 1785.5C2040.62 1785.5 2037.29 1782.17 2037.29 1777.98ZM2039.38 1797.96H2051.09V1862.56H2039.38V1797.96Z" fill="black"/>
<path d="M2124.55 1823.55V1862.56H2113.42V1854C2109.52 1859.9 2102.28 1863.23 2092.2 1863.23C2077.54 1863.23 2068.31 1855.42 2068.31 1844.2C2068.31 1833.83 2074.97 1825.36 2094.29 1825.36H2112.85V1823.08C2112.85 1813.18 2107.14 1807.47 2095.53 1807.47C2087.82 1807.47 2080.02 1810.14 2075.07 1814.42L2070.22 1805.67C2076.88 1800.34 2086.58 1797.39 2096.86 1797.39C2114.56 1797.39 2124.55 1805.95 2124.55 1823.55ZM2112.85 1842.77V1833.73H2094.86C2083.25 1833.73 2080.02 1838.2 2080.02 1843.72C2080.02 1850.19 2085.35 1854.19 2094.29 1854.19C2103.24 1854.19 2109.99 1850.19 2112.94 1842.77H2112.85Z" fill="black"/>
<path d="M2157 1854.85C2157 1857.33 2156.52 1859.14 2154.91 1863.61L2149.2 1880.54H2141.49L2145.96 1862.37C2142.92 1861.23 2140.82 1858.47 2140.82 1854.85C2140.82 1850 2144.34 1846.58 2149.01 1846.58C2153.67 1846.58 2156.9 1850.1 2156.9 1854.85H2157Z" fill="black"/>
<path d="M73.7993 1953.13C73.7993 1971.69 60.382 1982.82 38.2102 1982.82H17.1802V2008.6H5V1923.35H38.3053C60.4772 1923.35 73.8944 1934.58 73.8944 1953.04L73.7993 1953.13ZM61.6191 1953.13C61.6191 1940.96 53.4355 1934.01 37.8295 1934.01H17.1802V1972.26H37.9247C53.5306 1972.26 61.7142 1965.31 61.7142 1953.13H61.6191Z" fill="black"/>
<path d="M123.662 1943.52V1954.85C122.711 1954.75 121.854 1954.75 120.998 1954.75C108.437 1954.75 100.634 1962.46 100.634 1976.54V2008.7H88.9294V1944.1H100.158V1954.94C104.345 1947.43 112.338 1943.52 123.662 1943.52Z" fill="black"/>
<path d="M195.506 1980.34H143.17C144.597 1991.66 153.732 1999.18 166.578 1999.18C174.096 1999.18 180.472 1996.61 185.229 1991.38L191.7 1998.9C185.896 2005.75 176.951 2009.36 166.198 2009.36C145.358 2009.36 131.465 1995.57 131.465 1976.35C131.465 1957.13 145.263 1943.43 163.914 1943.43C182.565 1943.43 195.792 1956.84 195.792 1976.73C195.792 1977.68 195.697 1979.2 195.506 1980.25V1980.34ZM143.17 1971.97H184.563C183.326 1961.12 175.143 1953.42 163.819 1953.42C152.495 1953.42 144.311 1960.93 143.074 1971.97H143.17Z" fill="black"/>
<path d="M267.922 1944.19L239.66 2008.79H227.765L199.503 1944.19H211.683L233.855 1995.95L256.503 1944.19H267.922Z" fill="black"/>
<path d="M335.103 1980.34H282.766C284.194 1991.66 293.329 1999.18 306.175 1999.18C313.693 1999.18 320.068 1996.61 324.826 1991.38L331.297 1998.9C325.492 2005.75 316.548 2009.36 305.795 2009.36C284.955 2009.36 271.062 1995.57 271.062 1976.35C271.062 1957.13 284.86 1943.43 303.511 1943.43C322.162 1943.43 335.389 1956.84 335.389 1976.73C335.389 1977.68 335.294 1979.2 335.103 1980.25V1980.34ZM282.766 1971.97H324.16C322.923 1961.12 314.74 1953.42 303.416 1953.42C292.092 1953.42 283.908 1960.93 282.671 1971.97H282.766Z" fill="black"/>
<path d="M412.848 1971.59V2008.7H401.143V1972.92C401.143 1960.27 394.768 1954.08 383.729 1954.08C371.264 1954.08 363.27 1961.51 363.27 1975.49V2008.79H351.566V1944.19H362.795V1953.89C367.552 1947.33 375.831 1943.52 386.108 1943.52C401.809 1943.52 412.943 1952.56 412.943 1971.59H412.848Z" fill="black"/>
<path d="M480.505 1989.95L489.355 1995.57C484.216 2004.6 474.7 2009.46 463.281 2009.46L461.854 2014.78C468.896 2015.54 472.416 2019.54 472.416 2024.87C472.416 2031.72 466.421 2035.9 457.286 2035.9C453.004 2035.9 449.483 2035.05 446.438 2033.24L449.007 2027.25C451.577 2028.67 454.241 2029.34 457.286 2029.34C461.949 2029.34 464.138 2027.53 464.138 2024.49C464.138 2021.73 462.044 2019.73 457.191 2019.73H453.861L456.62 2008.89C440.158 2006.22 428.834 1993.57 428.834 1976.35C428.834 1957.13 443.108 1943.43 462.901 1943.43C474.51 1943.43 484.121 1948.19 489.259 1957.22L480.41 1962.93C476.223 1956.56 469.942 1953.7 462.901 1953.7C450.245 1953.7 440.729 1962.55 440.729 1976.35C440.729 1990.14 450.245 1999.09 462.901 1999.09C469.942 1999.09 476.318 1996.14 480.41 1989.86L480.505 1989.95Z" fill="black"/>
<path d="M555.585 1969.69V2008.69H544.451V2000.13C540.55 2006.03 533.318 2009.36 523.231 2009.36C508.577 2009.36 499.346 2001.56 499.346 1990.33C499.346 1979.96 506.007 1971.5 525.324 1971.5H543.88V1969.21C543.88 1959.32 538.171 1953.61 526.561 1953.61C518.854 1953.61 511.051 1956.27 506.102 1960.55L501.249 1951.8C507.91 1946.47 517.617 1943.52 527.894 1943.52C545.593 1943.52 555.585 1952.09 555.585 1969.69ZM514.857 1933.72H508.291C508.577 1924.69 513.144 1918.88 520.186 1918.88C527.989 1918.88 531.89 1927.16 536.363 1927.16C539.884 1927.16 542.358 1924.4 542.548 1919.83H549.114C548.828 1928.49 544.261 1934.3 537.219 1934.3C529.416 1934.3 525.515 1926.11 521.042 1926.11C517.521 1926.11 515.047 1928.87 514.857 1933.63V1933.72ZM543.88 1988.91V1979.87H525.8C514.191 1979.87 510.955 1984.34 510.955 1989.86C510.955 1996.33 516.284 2000.32 525.229 2000.32C534.174 2000.32 540.93 1996.33 543.88 1988.91Z" fill="black"/>
<path d="M571.667 1976.44C571.667 1957.22 585.94 1943.52 605.257 1943.52C624.574 1943.52 638.753 1957.13 638.753 1976.44C638.753 1995.76 624.574 2009.46 605.257 2009.46C585.94 2009.46 571.667 1995.66 571.667 1976.44ZM626.953 1976.44C626.953 1962.65 617.723 1953.8 605.257 1953.8C592.792 1953.8 583.466 1962.65 583.466 1976.44C583.466 1990.24 592.887 1999.18 605.257 1999.18C617.628 1999.18 626.953 1990.14 626.953 1976.44Z" fill="black"/>
<path d="M745.901 1980.34H693.564C694.991 1991.66 704.126 1999.18 716.973 1999.18C724.49 1999.18 730.866 1996.61 735.624 1991.38L742.094 1998.9C736.29 2005.75 727.345 2009.36 716.592 2009.36C695.752 2009.36 681.859 1995.57 681.859 1976.35C681.859 1957.13 695.657 1943.43 714.308 1943.43C732.959 1943.43 746.186 1956.84 746.186 1976.73C746.186 1977.68 746.091 1979.2 745.901 1980.25V1980.34ZM693.564 1971.97H734.958C733.721 1961.12 725.537 1953.42 714.213 1953.42C702.889 1953.42 694.706 1960.93 693.469 1971.97H693.564Z" fill="black"/>
<path d="M789.864 1966.07C789.864 1940.86 809.086 1922.5 835.064 1922.5C848.196 1922.5 859.71 1926.97 867.513 1935.72L859.615 1943.43C853.049 1936.48 844.96 1933.34 835.635 1933.34C816.413 1933.34 802.139 1947.23 802.139 1966.07C802.139 1984.91 816.413 1998.8 835.635 1998.8C845.055 1998.8 853.049 1995.47 859.615 1988.53L867.513 1996.23C859.71 2004.98 848.291 2009.65 834.969 2009.65C809.181 2009.65 789.864 1991.28 789.864 1966.07Z" fill="black"/>
<path d="M874.555 1976.44C874.555 1957.22 888.828 1943.52 908.146 1943.52C927.463 1943.52 941.641 1957.13 941.641 1976.44C941.641 1995.76 927.463 2009.46 908.146 2009.46C888.828 2009.46 874.555 1995.66 874.555 1976.44ZM929.842 1976.44C929.842 1962.65 920.611 1953.8 908.146 1953.8C895.68 1953.8 886.354 1962.65 886.354 1976.44C886.354 1990.24 895.775 1999.18 908.146 1999.18C920.516 1999.18 929.842 1990.14 929.842 1976.44Z" fill="black"/>
<path d="M1019.1 1971.59V2008.7H1007.4V1972.92C1007.4 1960.27 1001.02 1954.08 989.981 1954.08C977.516 1954.08 969.522 1961.51 969.522 1975.49V2008.79H957.818V1944.19H969.047V1953.89C973.804 1947.33 982.083 1943.52 992.36 1943.52C1008.06 1943.52 1019.19 1952.56 1019.19 1971.59H1019.1Z" fill="black"/>
<path d="M1077.15 2004.89C1073.63 2007.93 1068.3 2009.36 1063.06 2009.36C1050.03 2009.36 1042.6 2002.13 1042.6 1989.1V1953.7H1031.66V1944.1H1042.6V1929.92H1054.31V1944.1H1072.86V1953.7H1054.31V1988.62C1054.31 1995.57 1057.92 1999.47 1064.4 1999.47C1067.82 1999.47 1071.06 1998.32 1073.53 1996.42L1077.15 2004.79V2004.89Z" fill="black"/>
<path d="M1125.96 1943.52V1954.85C1125.01 1954.75 1124.15 1954.75 1123.3 1954.75C1110.74 1954.75 1102.93 1962.46 1102.93 1976.54V2008.7H1091.23V1944.1H1102.46V1954.94C1106.65 1947.43 1114.64 1943.52 1125.96 1943.52Z" fill="black"/>
<path d="M1133.77 1976.44C1133.77 1957.22 1148.04 1943.52 1167.36 1943.52C1186.67 1943.52 1200.85 1957.13 1200.85 1976.44C1200.85 1995.76 1186.67 2009.46 1167.36 2009.46C1148.04 2009.46 1133.77 1995.66 1133.77 1976.44ZM1189.05 1976.44C1189.05 1962.65 1179.82 1953.8 1167.36 1953.8C1154.89 1953.8 1145.56 1962.65 1145.56 1976.44C1145.56 1990.24 1154.99 1999.18 1167.36 1999.18C1179.73 1999.18 1189.05 1990.14 1189.05 1976.44Z" fill="black"/>
<path d="M1217.12 1918.31H1228.83V2008.69H1217.12V1918.31Z" fill="black"/>
<path d="M1309.24 1980.34H1256.9C1258.33 1991.66 1267.46 1999.18 1280.31 1999.18C1287.83 1999.18 1294.2 1996.61 1298.96 1991.38L1305.43 1998.9C1299.53 2005.75 1290.68 2009.36 1279.93 2009.36C1259.09 2009.36 1245.2 1995.57 1245.2 1976.35C1245.2 1957.13 1258.99 1943.43 1277.64 1943.43C1296.3 1943.43 1309.52 1956.84 1309.52 1976.73C1309.52 1977.68 1309.43 1979.2 1309.24 1980.25V1980.34ZM1256.9 1971.97H1298.29C1297.06 1961.12 1288.87 1953.42 1277.55 1953.42C1266.23 1953.42 1258.04 1960.93 1256.8 1971.97H1256.9Z" fill="black"/>
<path d="M1419.33 1918.31V2008.7H1408.11V1998.42C1402.87 2005.75 1394.59 2009.36 1385.08 2009.36C1366.24 2009.36 1352.44 1996.04 1352.44 1976.35C1352.44 1956.65 1366.24 1943.43 1385.08 1943.43C1394.21 1943.43 1402.21 1946.85 1407.63 1953.8V1918.22H1419.33V1918.31ZM1407.73 1976.44C1407.73 1962.65 1398.3 1953.8 1386.03 1953.8C1373.75 1953.8 1364.24 1962.65 1364.24 1976.44C1364.24 1990.24 1373.66 1999.18 1386.03 1999.18C1398.4 1999.18 1407.73 1990.14 1407.73 1976.44Z" fill="black"/>
<path d="M1499.55 1980.34H1447.22C1448.64 1991.66 1457.78 1999.18 1470.63 1999.18C1478.14 1999.18 1484.52 1996.61 1489.28 1991.38L1495.75 1998.9C1489.85 2005.75 1481 2009.36 1470.24 2009.36C1449.4 2009.36 1435.51 1995.57 1435.51 1976.35C1435.51 1957.13 1449.31 1943.43 1467.96 1943.43C1486.61 1943.43 1499.84 1956.84 1499.84 1976.73C1499.84 1977.68 1499.74 1979.2 1499.55 1980.25V1980.34ZM1447.22 1971.97H1488.61C1487.37 1961.12 1479.19 1953.42 1467.87 1953.42C1456.54 1953.42 1448.36 1960.93 1447.12 1971.97H1447.22Z" fill="black"/>
<path d="M1550.46 1923.45H1586.43C1613.84 1923.45 1632.49 1940.77 1632.49 1966.07C1632.49 1991.38 1613.84 2008.7 1586.43 2008.7H1550.46V1923.45ZM1585.67 1998.13C1606.7 1998.13 1620.31 1985.2 1620.31 1966.07C1620.31 1946.95 1606.8 1934.01 1585.67 1934.01H1562.64V1998.04H1585.67V1998.13Z" fill="black"/>
<path d="M1643.43 1976.44C1643.43 1957.22 1657.71 1943.52 1677.02 1943.52C1696.34 1943.52 1710.52 1957.13 1710.52 1976.44C1710.52 1995.76 1696.34 2009.46 1677.02 2009.46C1657.71 2009.46 1643.43 1995.66 1643.43 1976.44ZM1698.72 1976.44C1698.72 1962.65 1689.49 1953.8 1677.02 1953.8C1664.56 1953.8 1655.23 1962.65 1655.23 1976.44C1655.23 1990.24 1664.65 1999.18 1677.02 1999.18C1689.39 1999.18 1698.72 1990.14 1698.72 1976.44Z" fill="black"/>
<path d="M1784.93 1980.34H1732.6C1734.02 1991.66 1743.16 1999.18 1756 1999.18C1763.52 1999.18 1769.9 1996.61 1774.65 1991.38L1781.13 1998.9C1775.23 2005.75 1766.38 2009.36 1755.62 2009.36C1734.78 2009.36 1720.89 1995.57 1720.89 1976.35C1720.89 1957.13 1734.69 1943.43 1753.34 1943.43C1771.99 1943.43 1785.22 1956.84 1785.22 1976.73C1785.22 1977.68 1785.12 1979.2 1784.93 1980.25V1980.34ZM1732.6 1971.97H1773.99C1772.75 1961.12 1764.57 1953.42 1753.24 1953.42C1741.92 1953.42 1733.74 1960.93 1732.5 1971.97H1732.6Z" fill="black"/>
<path d="M1862.58 1971.59V2008.7H1850.88V1972.92C1850.88 1960.27 1844.5 1954.08 1833.46 1954.08C1821 1954.08 1813 1961.51 1813 1975.49V2008.79H1801.3V1944.19H1812.53V1953.89C1817.29 1947.33 1825.56 1943.52 1835.84 1943.52C1851.54 1943.52 1862.68 1952.56 1862.68 1971.59H1862.58Z" fill="black"/>
<path d="M1930.24 1989.95L1939.09 1995.57C1933.95 2004.6 1924.43 2009.46 1913.01 2009.46L1911.59 2014.78C1918.63 2015.54 1922.15 2019.54 1922.15 2024.87C1922.15 2031.72 1916.15 2035.9 1907.02 2035.9C1902.74 2035.9 1899.22 2035.05 1896.17 2033.24L1898.74 2027.25C1901.31 2028.67 1903.97 2029.34 1907.02 2029.34C1911.68 2029.34 1913.87 2027.53 1913.87 2024.49C1913.87 2021.73 1911.78 2019.73 1906.92 2019.73H1903.59L1906.35 2008.89C1889.89 2006.22 1878.57 1993.57 1878.57 1976.35C1878.57 1957.13 1892.84 1943.43 1912.63 1943.43C1924.24 1943.43 1933.85 1948.19 1938.99 1957.22L1930.14 1962.93C1925.96 1956.56 1919.68 1953.7 1912.63 1953.7C1899.98 1953.7 1890.46 1962.55 1890.46 1976.35C1890.46 1990.14 1899.98 1999.09 1912.63 1999.09C1919.68 1999.09 1926.05 1996.14 1930.14 1989.86L1930.24 1989.95Z" fill="black"/>
<path d="M2005.41 1969.69V2008.7H1994.28V2000.13C1990.38 2006.03 1983.15 2009.36 1973.06 2009.36C1958.41 2009.36 1949.17 2001.56 1949.17 1990.33C1949.17 1979.96 1955.84 1971.5 1975.15 1971.5H1993.71V1969.21C1993.71 1959.32 1988 1953.61 1976.39 1953.61C1968.68 1953.61 1960.88 1956.27 1955.93 1960.55L1951.08 1951.8C1957.74 1946.47 1967.45 1943.52 1977.72 1943.52C1995.42 1943.52 2005.41 1952.09 2005.41 1969.69ZM1993.71 1988.91V1979.87H1975.72C1964.11 1979.87 1960.88 1984.34 1960.88 1989.86C1960.88 1996.33 1966.21 2000.32 1975.15 2000.32C1984.1 2000.32 1990.85 1996.33 1993.8 1988.91H1993.71Z" fill="black"/>
<path d="M2018.93 2001.84L2023.78 1992.62C2029.3 1996.52 2038.05 1999.28 2046.43 1999.28C2057.27 1999.28 2061.75 1995.95 2061.75 1990.52C2061.75 1976.06 2020.92 1988.53 2020.92 1962.84C2020.92 1951.23 2031.3 1943.43 2047.85 1943.43C2056.23 1943.43 2065.74 1945.62 2071.36 1949.33L2066.31 1958.56C2060.51 1954.75 2054.04 1953.42 2047.66 1953.42C2037.39 1953.42 2032.44 1957.22 2032.44 1962.27C2032.44 1977.49 2073.36 1965.03 2073.36 1990.14C2073.36 2001.84 2062.6 2009.27 2045.47 2009.27C2034.72 2009.27 2024.16 2005.94 2018.83 2001.75L2018.93 2001.84Z" fill="black"/>
</g>
<g filter="url(#filter2_d_1_109)">
<path d="M896.155 1339.67V1499.89H372.31V869.965H884.451V1030.18H581.087V1104.01H847.53V1256.99H581.087V1339.77H896.155V1339.67Z" fill="#622E88"/>
<path d="M1478.43 1107.43C1478.43 1253.19 1366.81 1345 1191.34 1345H1100.46V1499.79H888.067V869.87H1191.43C1366.9 869.87 1478.52 961.68 1478.52 1107.43H1478.43ZM1264.23 1107.43C1264.23 1061.58 1236.35 1033.61 1177.82 1033.61H1100.46V1181.17H1177.82C1236.35 1181.17 1264.23 1153.29 1264.23 1107.34V1107.43Z" fill="#951B81"/>
<path d="M1457.68 869.87H1670.08V1499.79H1457.68V869.87Z" fill="#009FE3"/>
</g>
<g filter="url(#filter3_d_1_109)">
<path d="M1327.51 353.165C1476.71 353.165 1597.66 284.459 1597.66 199.705C1597.66 114.951 1476.71 46.2441 1327.51 46.2441C1178.31 46.2441 1057.35 114.951 1057.35 199.705C1057.35 284.459 1178.31 353.165 1327.51 353.165Z" stroke="#E8E100" stroke-width="0.42" stroke-miterlimit="10"/>
<path d="M1562.64 275.151C1584.81 252.888 1597.57 227.105 1597.57 199.705C1597.57 114.935 1476.62 46.2441 1327.41 46.2441C1178.2 46.2441 1058.21 114.459 1057.35 198.753C1109.4 152.42 1191.62 122.451 1284.02 122.451C1420.76 122.451 1534.95 187.907 1562.64 275.151Z" fill="#622E88"/>
<path d="M1325.51 393.315C1149.75 393.315 1006.54 310.923 999.402 207.792H999.021V304.93H999.973C1012.25 405.207 1153.27 484.363 1325.51 484.363C1497.75 484.363 1638.77 405.207 1651.04 304.93H1652V207.792H1651.62C1644.48 311.019 1501.17 393.315 1325.51 393.315Z" fill="#951B81"/>
<path d="M1325.51 6C1145.18 6 999.021 92.6725 999.021 199.705C999.021 306.737 1145.18 393.41 1325.51 393.41C1505.83 393.41 1652 306.737 1652 199.705C1652 92.6725 1505.83 6 1325.51 6ZM1327.41 353.166C1178.2 353.166 1057.26 284.475 1057.26 199.705C1057.26 114.935 1178.2 46.2442 1327.41 46.2442C1476.62 46.2442 1597.57 114.935 1597.57 199.705C1597.57 284.475 1476.62 353.166 1327.41 353.166Z" fill="#009FE3"/>
<path d="M1979.95 656.904C1990.75 615.411 1969.87 574.059 1933.3 564.542C1896.73 555.026 1858.33 580.948 1847.53 622.442C1836.72 663.935 1857.61 705.287 1894.18 714.804C1930.75 724.32 1969.15 698.398 1979.95 656.904Z" fill="#009FE3"/>
<path d="M1705.09 407.871C1696.43 400.545 1687.3 393.505 1675.88 390.556C1639.34 381.042 1600.9 406.92 1590.05 448.401C1579.87 487.503 1599.56 522.705 1630.68 538.784C1694.25 571.702 1867.53 699.951 1867.53 699.951C1848.31 682.064 1839.55 652.285 1847.36 622.411C1858.11 580.931 1896.55 555.052 1933.19 564.566C1934.62 564.947 1935.95 565.423 1937.28 565.898C1937.28 565.898 1758.67 453.253 1705.09 407.966V407.871Z" fill="#622E88"/>
<path d="M1581.77 364.392C1575.77 360.015 1568.45 357.352 1560.45 357.352C1540.57 357.352 1524.48 373.43 1524.48 393.314C1524.48 405.207 1532.67 417.29 1538.57 422.998C1549.61 433.654 1587.95 459.437 1587.95 459.437C1588.43 455.821 1589 452.111 1590.05 448.496C1596.14 425.281 1610.79 406.919 1629.06 396.93L1581.86 364.487L1581.77 364.392Z" fill="#009FE3"/>
</g>
<g filter="url(#filter4_d_1_109)">
<path d="M451.482 127.494V407.205H411.896V162.315H348.711V127.589H451.387L451.482 127.494Z" fill="#622E88"/>
<path d="M716.402 127.494V154.704L603.354 407.205H561.009L671.678 162.315H543.785V212.263H505.437V127.589H716.402V127.494Z" fill="#622E88"/>
<path d="M837.823 162.125C846.959 170.497 851.431 183.055 851.431 199.61V274.104H830.211V257.835C826.5 263.544 821.171 267.92 814.224 270.965C807.278 274.009 799.094 275.531 789.673 275.531C775.875 275.531 764.742 272.201 756.463 265.542C748.184 258.882 743.998 250.129 743.998 239.188C743.998 228.247 747.994 219.589 755.892 213.024C763.79 206.46 776.351 203.13 793.67 203.13H829.069V198.658C829.069 189.049 826.309 181.628 820.695 176.491C815.081 171.353 806.897 168.784 795.954 168.784C788.627 168.784 781.49 170.021 774.543 172.4C767.597 174.778 761.697 178.013 756.844 182.104L747.518 165.359C753.894 160.222 761.507 156.321 770.356 153.562C779.206 150.803 788.627 149.471 798.523 149.471C815.652 149.471 828.688 153.657 837.823 162.029V162.125ZM815.556 252.603C821.742 248.797 826.309 243.374 829.069 236.429V219.208H794.622C775.685 219.208 766.169 225.583 766.169 238.332C766.169 244.516 768.548 249.463 773.401 252.983C778.254 256.598 784.916 258.311 793.48 258.311C802.044 258.311 809.371 256.408 815.652 252.603H815.556Z" fill="#622E88"/>
</g>
<defs>
<filter id="filter0_d_1_109" x="365.926" y="485.309" width="1411.21" height="409.312" filterUnits="userSpaceOnUse" color-interpolation-filters="sRGB">
<feFlood flood-opacity="0" result="BackgroundImageFix"/>
<feColorMatrix in="SourceAlpha" type="matrix" values="0 0 0 0 0 0 0 0 0 0 0 0 0 0 0 0 0 0 127 0" result="hardAlpha"/>
<feOffset dy="4"/>
<feGaussianBlur stdDeviation="5"/>
<feComposite in2="hardAlpha" operator="out"/>
<feColorMatrix type="matrix" values="0 0 0 0 1 0 0 0 0 1 0 0 0 0 1 0 0 0 0.25 0"/>
<feBlend mode="normal" in2="BackgroundImageFix" result="effect1_dropShadow_1_109"/>
<feBlend mode="normal" in="SourceGraphic" in2="effect1_dropShadow_1_109" result="shape"/>
</filter>
<filter id="filter1_d_1_109" x="0" y="1623.14" width="2162" height="421.765" filterUnits="userSpaceOnUse" color-interpolation-filters="sRGB">
<feFlood flood-opacity="0" result="BackgroundImageFix"/>
<feColorMatrix in="SourceAlpha" type="matrix" values="0 0 0 0 0 0 0 0 0 0 0 0 0 0 0 0 0 0 127 0" result="hardAlpha"/>
<feOffset dy="4"/>
<feGaussianBlur stdDeviation="2.5"/>
<feComposite in2="hardAlpha" operator="out"/>
<feColorMatrix type="matrix" values="0 0 0 0 1 0 0 0 0 1 0 0 0 0 1 0 0 0 0.25 0"/>
<feBlend mode="normal" in2="BackgroundImageFix" result="effect1_dropShadow_1_109"/>
<feBlend mode="normal" in="SourceGraphic" in2="effect1_dropShadow_1_109" result="shape"/>
</filter>
<filter id="filter2_d_1_109" x="362.31" y="863.87" width="1317.77" height="650.016" filterUnits="userSpaceOnUse" color-interpolation-filters="sRGB">
<feFlood flood-opacity="0" result="BackgroundImageFix"/>
<feColorMatrix in="SourceAlpha" type="matrix" values="0 0 0 0 0 0 0 0 0 0 0 0 0 0 0 0 0 0 127 0" result="hardAlpha"/>
<feOffset dy="4"/>
<feGaussianBlur stdDeviation="5"/>
<feComposite in2="hardAlpha" operator="out"/>
<feColorMatrix type="matrix" values="0 0 0 0 1 0 0 0 0 1 0 0 0 0 1 0 0 0 0.25 0"/>
<feBlend mode="normal" in2="BackgroundImageFix" result="effect1_dropShadow_1_109"/>
<feBlend mode="normal" in="SourceGraphic" in2="effect1_dropShadow_1_109" result="shape"/>
</filter>
<filter id="filter3_d_1_109" x="989.021" y="0" width="1003.78" height="730.771" filterUnits="userSpaceOnUse" color-interpolation-filters="sRGB">
<feFlood flood-opacity="0" result="BackgroundImageFix"/>
<feColorMatrix in="SourceAlpha" type="matrix" values="0 0 0 0 0 0 0 0 0 0 0 0 0 0 0 0 0 0 127 0" result="hardAlpha"/>
<feOffset dy="4"/>
<feGaussianBlur stdDeviation="5"/>
<feComposite in2="hardAlpha" operator="out"/>
<feColorMatrix type="matrix" values="0 0 0 0 1 0 0 0 0 1 0 0 0 0 1 0 0 0 0.25 0"/>
<feBlend mode="normal" in2="BackgroundImageFix" result="effect1_dropShadow_1_109"/>
<feBlend mode="normal" in="SourceGraphic" in2="effect1_dropShadow_1_109" result="shape"/>
</filter>
<filter id="filter4_d_1_109" x="338.711" y="121.494" width="522.72" height="299.711" filterUnits="userSpaceOnUse" color-interpolation-filters="sRGB">
<feFlood flood-opacity="0" result="BackgroundImageFix"/>
<feColorMatrix in="SourceAlpha" type="matrix" values="0 0 0 0 0 0 0 0 0 0 0 0 0 0 0 0 0 0 127 0" result="hardAlpha"/>
<feOffset dy="4"/>
<feGaussianBlur stdDeviation="5"/>
<feComposite in2="hardAlpha" operator="out"/>
<feColorMatrix type="matrix" values="0 0 0 0 1 0 0 0 0 1 0 0 0 0 1 0 0 0 0.25 0"/>
<feBlend mode="normal" in2="BackgroundImageFix" result="effect1_dropShadow_1_109"/>
<feBlend mode="normal" in="SourceGraphic" in2="effect1_dropShadow_1_109" result="shape"/>
</filter>
</defs>
</svg>
