<svg width="33" height="32" viewBox="0 0 33 32" fill="none" xmlns="http://www.w3.org/2000/svg">
<path d="M7.2406 16.5258V18.5536H1.23828V10.577H7.10594V12.6048H3.63072V13.5382H6.68353V15.4742H3.63072V16.5217H7.2406V16.5258Z" fill="#9D9D9C"/>
<path d="M11.6643 18.5536L10.4155 16.4219L9.1981 18.5536H6.42383L9.03393 14.5307L6.5179 10.577H9.25159L10.4783 12.5824L11.6754 10.577H14.2947L11.7879 14.4288L14.4478 18.5536H11.6625H11.6643Z" fill="#9D9D9C"/>
<path d="M20.4834 13.5851C20.4834 15.4314 19.2051 16.5931 17.1945 16.5931H16.1523V18.5536H13.7192V10.577H17.1945C19.2051 10.577 20.4834 11.7387 20.4834 13.5851ZM18.0282 13.5851C18.0282 13.0042 17.7091 12.6517 17.0377 12.6517H16.1504V14.5205H17.0377C17.7073 14.5205 18.0282 14.1679 18.0282 13.5871V13.5851Z" fill="#9D9D9C"/>
<path d="M20.0605 14.5653C20.0605 12.1503 21.7834 10.3956 24.1334 10.3956C26.4834 10.3956 28.2063 12.1503 28.2063 14.5653C28.2063 16.9803 26.4834 18.735 24.1334 18.735C21.7834 18.735 20.0605 16.9803 20.0605 14.5653ZM25.753 14.5653C25.753 13.3242 25.0317 12.5722 24.1334 12.5722C23.2351 12.5722 22.5139 13.3242 22.5139 14.5653C22.5139 15.8064 23.2351 16.5584 24.1334 16.5584C25.0317 16.5584 25.753 15.8064 25.753 14.5653Z" fill="#9D9D9C"/>
<path d="M11.323 28.5681V32H1.16846V18.5067H11.0961V21.9386H5.2155V23.5201H10.3804V26.7971H5.2155V28.5701H11.323V28.5681Z" fill="#622E88"/>
<path d="M22.6099 23.5934C22.6099 26.7156 20.4462 28.6822 17.0447 28.6822H15.2832V31.998H11.166V18.5046H17.0466C20.448 18.5046 22.6117 20.4713 22.6117 23.5934H22.6099ZM18.4577 23.5934C18.4577 22.6111 17.9172 22.012 16.7828 22.012H15.2832V25.1728H16.7828C17.9172 25.1728 18.4577 24.5757 18.4577 23.5914V23.5934Z" fill="#951B81"/>
<path d="M22.208 18.5046H26.3251V31.998H22.208V18.5046Z" fill="#009FE3"/>
<path d="M19.6846 7.43651C22.5768 7.43651 24.9214 5.96477 24.9214 4.14929C24.9214 2.3338 22.5768 0.862061 19.6846 0.862061C16.7924 0.862061 14.4478 2.3338 14.4478 4.14929C14.4478 5.96477 16.7924 7.43651 19.6846 7.43651Z" stroke="#E8E100" stroke-width="0.42" stroke-miterlimit="10"/>
<path d="M24.2426 5.76539C24.6724 5.2885 24.9195 4.73622 24.9195 4.14929C24.9195 2.33347 22.575 0.862061 19.6827 0.862061C16.7904 0.862061 14.4644 2.32328 14.4478 4.12891C15.4567 3.13642 17.0505 2.49446 18.8416 2.49446C21.4923 2.49446 23.7058 3.89658 24.2426 5.76539Z" fill="#622E88"/>
<path d="M19.6457 8.29653C16.2387 8.29653 13.4626 6.53166 13.3243 4.32251H13.3169V6.40326H13.3353C13.5733 8.55127 16.307 10.2469 19.6457 10.2469C22.9844 10.2469 25.7181 8.55127 25.9561 6.40326H25.9745V4.32251H25.9671C25.8288 6.53369 23.0508 8.29653 19.6457 8.29653Z" fill="#951B81"/>
<path d="M19.6457 0C16.1502 0 13.3169 1.85658 13.3169 4.14928C13.3169 6.44198 16.1502 8.29856 19.6457 8.29856C23.1412 8.29856 25.9745 6.44198 25.9745 4.14928C25.9745 1.85658 23.1412 0 19.6457 0ZM19.6826 7.43651C16.7903 7.43651 14.4458 5.9651 14.4458 4.14928C14.4458 2.33346 16.7903 0.862056 19.6826 0.862056C22.5749 0.862056 24.9194 2.33346 24.9194 4.14928C24.9194 5.9651 22.5749 7.43651 19.6826 7.43651Z" fill="#009FE3"/>
<path d="M32.3319 13.9428C32.5413 13.054 32.1364 12.1682 31.4276 11.9644C30.7187 11.7605 29.9743 12.3158 29.7649 13.2046C29.5555 14.0934 29.9604 14.9792 30.6692 15.1831C31.3781 15.3869 32.1225 14.8316 32.3319 13.9428Z" fill="#009FE3"/>
<path d="M27.0037 8.60828C26.8358 8.45136 26.6587 8.30055 26.4374 8.23737C25.7291 8.03357 24.9838 8.5879 24.7736 9.47645C24.5762 10.314 24.958 11.0681 25.5612 11.4125C26.7934 12.1176 30.1524 14.8648 30.1524 14.8648C29.7798 14.4817 29.6101 13.8438 29.7613 13.2039C29.9698 12.3153 30.715 11.761 31.4252 11.9648C31.4528 11.9729 31.4787 11.9831 31.5045 11.9933C31.5045 11.9933 28.0422 9.58038 27.0037 8.61032V8.60828Z" fill="#622E88"/>
<path d="M24.6134 7.67693C24.4972 7.58319 24.3551 7.52612 24.2002 7.52612C23.8147 7.52612 23.5029 7.87054 23.5029 8.29647C23.5029 8.55122 23.6616 8.81004 23.7759 8.93231C23.9899 9.16057 24.7333 9.71285 24.7333 9.71285C24.7425 9.63541 24.7536 9.55593 24.7739 9.47849C24.8919 8.98122 25.176 8.5879 25.5301 8.37391L24.6152 7.67897L24.6134 7.67693Z" fill="#009FE3"/>
<path d="M2.7031 2.60242V8.59401H1.93575V3.34831H0.710938V2.60445H2.70126L2.7031 2.60242Z" fill="#622E88"/>
<path d="M7.83849 2.60242V3.18527L5.64711 8.59401H4.82627L6.97153 3.34831H4.4924V4.41824H3.74902V2.60445H7.83849V2.60242Z" fill="#622E88"/>
<path d="M10.1923 3.34429C10.3694 3.52363 10.4561 3.79264 10.4561 4.14725V5.74297H10.0447V5.39448C9.9728 5.51675 9.8695 5.6105 9.73485 5.67571C9.60019 5.74093 9.44156 5.77354 9.25894 5.77354C8.99147 5.77354 8.77566 5.70221 8.61518 5.55955C8.4547 5.41689 8.37354 5.2294 8.37354 4.99504C8.37354 4.76067 8.45101 4.57522 8.60411 4.4346C8.75721 4.29398 9.0007 4.22265 9.33641 4.22265H10.0226V4.12687C10.0226 3.92103 9.96911 3.76207 9.86028 3.65202C9.75145 3.54197 9.59281 3.48695 9.38068 3.48695C9.23865 3.48695 9.10031 3.51344 8.96565 3.56439C8.83099 3.61534 8.71663 3.68463 8.62256 3.77226L8.44178 3.41358C8.56537 3.30353 8.71294 3.21998 8.88449 3.16087C9.05604 3.10177 9.23865 3.07324 9.43049 3.07324C9.76252 3.07324 10.0152 3.16291 10.1923 3.34225V3.34429ZM9.76067 5.28239C9.88057 5.20087 9.96911 5.08471 10.0226 4.93594V4.56707H9.35486C8.98779 4.56707 8.80333 4.70361 8.80333 4.97669C8.80333 5.10916 8.84944 5.21514 8.94351 5.29054C9.03759 5.36798 9.16671 5.40467 9.33272 5.40467C9.49874 5.40467 9.64077 5.36391 9.76252 5.28239H9.76067Z" fill="#622E88"/>
</svg>
